<mxfile host="app.diagrams.net" modified="2021-12-31T06:11:53.567Z" agent="5.0 (Macintosh; Intel Mac OS X 10_15_7) AppleWebKit/605.1.15 (KHTML, like Gecko) Version/15.1 Safari/605.1.15" etag="22JLAiBPbnmKkHQ5lWmf" version="16.1.2" type="github">
  <diagram id="J8v5nOwloBeOroNvl-C5" name="Page-1">
    <mxGraphModel dx="761" dy="558" grid="1" gridSize="10" guides="1" tooltips="1" connect="1" arrows="1" fold="1" page="1" pageScale="1" pageWidth="827" pageHeight="1169" math="0" shadow="0">
      <root>
        <mxCell id="0" />
        <mxCell id="1" parent="0" />
        <mxCell id="k5aMiG2UluXMkMwgCBKv-1" value="OS&lt;br&gt;&lt;br&gt;&lt;br&gt;&lt;br&gt;&lt;br&gt;&lt;br&gt;" style="rounded=0;whiteSpace=wrap;html=1;fillColor=#dae8fc;strokeColor=#6c8ebf;" vertex="1" parent="1">
          <mxGeometry x="224" y="190" width="190" height="90" as="geometry" />
        </mxCell>
        <mxCell id="k5aMiG2UluXMkMwgCBKv-2" value="Kernel" style="rounded=0;whiteSpace=wrap;html=1;fillColor=#dae8fc;strokeColor=#6c8ebf;" vertex="1" parent="1">
          <mxGeometry x="259" y="210" width="120" height="60" as="geometry" />
        </mxCell>
        <mxCell id="k5aMiG2UluXMkMwgCBKv-3" value="App&lt;br&gt;&lt;br&gt;&lt;br&gt;&lt;br&gt;&lt;br&gt;&lt;br&gt;" style="rounded=0;whiteSpace=wrap;html=1;fillColor=#dae8fc;strokeColor=#6c8ebf;" vertex="1" parent="1">
          <mxGeometry x="224" y="10" width="190" height="90" as="geometry" />
        </mxCell>
        <mxCell id="k5aMiG2UluXMkMwgCBKv-4" value="Zoom" style="rounded=0;whiteSpace=wrap;html=1;fillColor=#dae8fc;strokeColor=#6c8ebf;" vertex="1" parent="1">
          <mxGeometry x="259" y="30" width="120" height="60" as="geometry" />
        </mxCell>
      </root>
    </mxGraphModel>
  </diagram>
</mxfile>
